<mxfile host="app.diagrams.net" agent="Mozilla/5.0 (X11; Linux x86_64; rv:109.0) Gecko/20100101 Firefox/114.0" version="24.7.6">
  <diagram name="PÃ¡gina-1" id="JncPE99gFqigerEia28o">
    <mxGraphModel dx="954" dy="1661" grid="1" gridSize="10" guides="1" tooltips="1" connect="1" arrows="1" fold="1" page="1" pageScale="1" pageWidth="827" pageHeight="1169" math="0" shadow="0">
      <root>
        <mxCell id="0" />
        <mxCell id="1" parent="0" />
        <mxCell id="h5DCJfzuU3dhOEaMjpJl-1" value="Usuario" style="shape=umlActor;verticalLabelPosition=bottom;verticalAlign=top;html=1;" vertex="1" parent="1">
          <mxGeometry x="61" y="110" width="50" height="80" as="geometry" />
        </mxCell>
        <mxCell id="h5DCJfzuU3dhOEaMjpJl-2" value="Administrador" style="shape=umlActor;verticalLabelPosition=bottom;verticalAlign=top;html=1;" vertex="1" parent="1">
          <mxGeometry x="150" y="470" width="50" height="80" as="geometry" />
        </mxCell>
        <mxCell id="h5DCJfzuU3dhOEaMjpJl-3" value="administrar conteudos" style="ellipse;whiteSpace=wrap;html=1;" vertex="1" parent="1">
          <mxGeometry x="330" y="485" width="96" height="50" as="geometry" />
        </mxCell>
        <mxCell id="h5DCJfzuU3dhOEaMjpJl-6" value="" style="endArrow=none;startArrow=none;endFill=0;startFill=0;endSize=8;html=1;verticalAlign=bottom;labelBackgroundColor=none;strokeWidth=3;rounded=0;" edge="1" parent="1" target="h5DCJfzuU3dhOEaMjpJl-3">
          <mxGeometry width="160" relative="1" as="geometry">
            <mxPoint x="220" y="510" as="sourcePoint" />
            <mxPoint x="340" y="510" as="targetPoint" />
          </mxGeometry>
        </mxCell>
        <mxCell id="h5DCJfzuU3dhOEaMjpJl-7" value="" style="endArrow=none;startArrow=none;endFill=0;startFill=0;endSize=8;html=1;verticalAlign=bottom;labelBackgroundColor=none;strokeWidth=3;rounded=0;" edge="1" parent="1" target="h5DCJfzuU3dhOEaMjpJl-8">
          <mxGeometry width="160" relative="1" as="geometry">
            <mxPoint x="121" y="140" as="sourcePoint" />
            <mxPoint x="281" y="140" as="targetPoint" />
          </mxGeometry>
        </mxCell>
        <mxCell id="h5DCJfzuU3dhOEaMjpJl-8" value="criar perfil" style="ellipse;whiteSpace=wrap;html=1;" vertex="1" parent="1">
          <mxGeometry x="231" y="110" width="106" height="60" as="geometry" />
        </mxCell>
        <mxCell id="h5DCJfzuU3dhOEaMjpJl-11" value="criar postagem" style="ellipse;whiteSpace=wrap;html=1;" vertex="1" parent="1">
          <mxGeometry x="391" y="-10" width="94" height="60" as="geometry" />
        </mxCell>
        <mxCell id="h5DCJfzuU3dhOEaMjpJl-12" value="ler postagem" style="ellipse;whiteSpace=wrap;html=1;" vertex="1" parent="1">
          <mxGeometry x="426" y="100" width="94" height="60" as="geometry" />
        </mxCell>
        <mxCell id="h5DCJfzuU3dhOEaMjpJl-13" value="pesquisar" style="ellipse;whiteSpace=wrap;html=1;" vertex="1" parent="1">
          <mxGeometry x="391" y="210" width="94" height="60" as="geometry" />
        </mxCell>
        <mxCell id="h5DCJfzuU3dhOEaMjpJl-14" value="&amp;lt;&amp;lt;include&amp;gt;&amp;gt;" style="html=1;verticalAlign=bottom;labelBackgroundColor=none;endArrow=open;endFill=0;dashed=1;rounded=0;" edge="1" parent="1" source="h5DCJfzuU3dhOEaMjpJl-15">
          <mxGeometry x="-0.25" y="30" width="160" relative="1" as="geometry">
            <mxPoint x="214" y="310" as="sourcePoint" />
            <mxPoint x="171" y="280" as="targetPoint" />
            <Array as="points" />
            <mxPoint as="offset" />
          </mxGeometry>
        </mxCell>
        <mxCell id="h5DCJfzuU3dhOEaMjpJl-15" value="perfil" style="ellipse;whiteSpace=wrap;html=1;" vertex="1" parent="1">
          <mxGeometry x="235" y="250" width="90" height="60" as="geometry" />
        </mxCell>
        <mxCell id="h5DCJfzuU3dhOEaMjpJl-16" value="" style="endArrow=none;startArrow=none;endFill=0;startFill=0;endSize=8;html=1;verticalAlign=bottom;labelBackgroundColor=none;strokeWidth=3;rounded=0;" edge="1" parent="1" source="h5DCJfzuU3dhOEaMjpJl-8" target="h5DCJfzuU3dhOEaMjpJl-12">
          <mxGeometry width="160" relative="1" as="geometry">
            <mxPoint x="311" y="250" as="sourcePoint" />
            <mxPoint x="471" y="250" as="targetPoint" />
          </mxGeometry>
        </mxCell>
        <mxCell id="h5DCJfzuU3dhOEaMjpJl-17" value="" style="endArrow=none;startArrow=none;endFill=0;startFill=0;endSize=8;html=1;verticalAlign=bottom;labelBackgroundColor=none;strokeWidth=3;rounded=0;" edge="1" parent="1" source="h5DCJfzuU3dhOEaMjpJl-8" target="h5DCJfzuU3dhOEaMjpJl-13">
          <mxGeometry width="160" relative="1" as="geometry">
            <mxPoint x="347" y="150" as="sourcePoint" />
            <mxPoint x="411" y="150" as="targetPoint" />
          </mxGeometry>
        </mxCell>
        <mxCell id="h5DCJfzuU3dhOEaMjpJl-18" value="" style="endArrow=none;startArrow=none;endFill=0;startFill=0;endSize=8;html=1;verticalAlign=bottom;labelBackgroundColor=none;strokeWidth=3;rounded=0;" edge="1" parent="1" source="h5DCJfzuU3dhOEaMjpJl-8" target="h5DCJfzuU3dhOEaMjpJl-11">
          <mxGeometry width="160" relative="1" as="geometry">
            <mxPoint x="326.55698263389036" y="90.68715112671896" as="sourcePoint" />
            <mxPoint x="391" y="60" as="targetPoint" />
          </mxGeometry>
        </mxCell>
        <mxCell id="h5DCJfzuU3dhOEaMjpJl-19" value="&amp;lt;&amp;lt;include&amp;gt;&amp;gt;" style="html=1;verticalAlign=bottom;labelBackgroundColor=none;endArrow=open;endFill=0;dashed=1;rounded=0;exitX=0.787;exitY=0.083;exitDx=0;exitDy=0;exitPerimeter=0;entryX=0;entryY=0.5;entryDx=0;entryDy=0;" edge="1" parent="1" source="h5DCJfzuU3dhOEaMjpJl-11" target="h5DCJfzuU3dhOEaMjpJl-22">
          <mxGeometry x="0.1962" y="-26" width="160" relative="1" as="geometry">
            <mxPoint x="521" y="10" as="sourcePoint" />
            <mxPoint x="581" y="10" as="targetPoint" />
            <mxPoint as="offset" />
          </mxGeometry>
        </mxCell>
        <mxCell id="h5DCJfzuU3dhOEaMjpJl-20" value="editar perfil" style="ellipse;whiteSpace=wrap;html=1;" vertex="1" parent="1">
          <mxGeometry x="71" y="250" width="94" height="60" as="geometry" />
        </mxCell>
        <mxCell id="h5DCJfzuU3dhOEaMjpJl-21" value="" style="endArrow=none;startArrow=none;endFill=0;startFill=0;endSize=8;html=1;verticalAlign=bottom;labelBackgroundColor=none;strokeWidth=3;rounded=0;exitX=0.5;exitY=1;exitDx=0;exitDy=0;" edge="1" parent="1" source="h5DCJfzuU3dhOEaMjpJl-8" target="h5DCJfzuU3dhOEaMjpJl-15">
          <mxGeometry width="160" relative="1" as="geometry">
            <mxPoint x="329" y="173" as="sourcePoint" />
            <mxPoint x="415" y="229" as="targetPoint" />
          </mxGeometry>
        </mxCell>
        <mxCell id="h5DCJfzuU3dhOEaMjpJl-22" value="apagar postagem" style="ellipse;whiteSpace=wrap;html=1;" vertex="1" parent="1">
          <mxGeometry x="540" y="-130" width="94" height="60" as="geometry" />
        </mxCell>
        <mxCell id="h5DCJfzuU3dhOEaMjpJl-23" value="&amp;lt;&amp;lt;include&amp;gt;&amp;gt;" style="html=1;verticalAlign=bottom;labelBackgroundColor=none;endArrow=open;endFill=0;dashed=1;rounded=0;exitX=0.787;exitY=0.083;exitDx=0;exitDy=0;exitPerimeter=0;entryX=0;entryY=0;entryDx=0;entryDy=0;" edge="1" parent="1" target="h5DCJfzuU3dhOEaMjpJl-24">
          <mxGeometry x="0.1962" y="-26" width="160" relative="1" as="geometry">
            <mxPoint x="475" y="35" as="sourcePoint" />
            <mxPoint x="601" y="80" as="targetPoint" />
            <mxPoint as="offset" />
          </mxGeometry>
        </mxCell>
        <mxCell id="h5DCJfzuU3dhOEaMjpJl-24" value="editar postagem" style="ellipse;whiteSpace=wrap;html=1;" vertex="1" parent="1">
          <mxGeometry x="634" y="-70" width="94" height="60" as="geometry" />
        </mxCell>
        <mxCell id="h5DCJfzuU3dhOEaMjpJl-26" value="&amp;lt;&amp;lt;extend&amp;gt;&amp;gt;" style="html=1;verticalAlign=bottom;labelBackgroundColor=none;endArrow=open;endFill=0;dashed=1;rounded=0;exitX=1;exitY=0.5;exitDx=0;exitDy=0;" edge="1" parent="1" source="h5DCJfzuU3dhOEaMjpJl-13" target="h5DCJfzuU3dhOEaMjpJl-27">
          <mxGeometry x="0.0122" y="7" width="160" relative="1" as="geometry">
            <mxPoint x="504.99" y="289.5" as="sourcePoint" />
            <mxPoint x="620.99" y="290" as="targetPoint" />
            <mxPoint as="offset" />
          </mxGeometry>
        </mxCell>
        <mxCell id="h5DCJfzuU3dhOEaMjpJl-27" value="pesquisar por usuario" style="ellipse;whiteSpace=wrap;html=1;" vertex="1" parent="1">
          <mxGeometry x="610.99" y="230" width="94" height="60" as="geometry" />
        </mxCell>
        <mxCell id="h5DCJfzuU3dhOEaMjpJl-28" value="pesquisar por grupos" style="ellipse;whiteSpace=wrap;html=1;" vertex="1" parent="1">
          <mxGeometry x="610.99" y="300" width="94" height="60" as="geometry" />
        </mxCell>
        <mxCell id="h5DCJfzuU3dhOEaMjpJl-29" value="pesquisar por solicitacoes" style="ellipse;whiteSpace=wrap;html=1;" vertex="1" parent="1">
          <mxGeometry x="610.99" y="370" width="94" height="60" as="geometry" />
        </mxCell>
        <mxCell id="h5DCJfzuU3dhOEaMjpJl-30" value="listar minhas conexoes" style="ellipse;whiteSpace=wrap;html=1;" vertex="1" parent="1">
          <mxGeometry x="610.99" y="440" width="94" height="60" as="geometry" />
        </mxCell>
        <mxCell id="h5DCJfzuU3dhOEaMjpJl-31" value="&amp;lt;&amp;lt;extend&amp;gt;&amp;gt;" style="html=1;verticalAlign=bottom;labelBackgroundColor=none;endArrow=open;endFill=0;dashed=1;rounded=0;exitX=1;exitY=1;exitDx=0;exitDy=0;" edge="1" parent="1" source="h5DCJfzuU3dhOEaMjpJl-13" target="h5DCJfzuU3dhOEaMjpJl-28">
          <mxGeometry x="0.1095" y="22" width="160" relative="1" as="geometry">
            <mxPoint x="502.83990549857003" y="298.969981099714" as="sourcePoint" />
            <mxPoint x="630.99" y="300" as="targetPoint" />
            <mxPoint as="offset" />
          </mxGeometry>
        </mxCell>
        <mxCell id="h5DCJfzuU3dhOEaMjpJl-32" value="&amp;lt;&amp;lt;extend&amp;gt;&amp;gt;" style="html=1;verticalAlign=bottom;labelBackgroundColor=none;endArrow=open;endFill=0;dashed=1;rounded=0;exitX=0.649;exitY=0.967;exitDx=0;exitDy=0;exitPerimeter=0;" edge="1" parent="1" source="h5DCJfzuU3dhOEaMjpJl-13" target="h5DCJfzuU3dhOEaMjpJl-29">
          <mxGeometry x="0.0774" y="9" width="160" relative="1" as="geometry">
            <mxPoint x="493.6290011272938" y="309.55798842351487" as="sourcePoint" />
            <mxPoint x="600.99" y="340.5" as="targetPoint" />
            <mxPoint as="offset" />
          </mxGeometry>
        </mxCell>
        <mxCell id="h5DCJfzuU3dhOEaMjpJl-33" value="&amp;lt;&amp;lt;extend&amp;gt;&amp;gt;" style="html=1;verticalAlign=bottom;labelBackgroundColor=none;endArrow=open;endFill=0;dashed=1;rounded=0;exitX=0.5;exitY=1;exitDx=0;exitDy=0;" edge="1" parent="1" source="h5DCJfzuU3dhOEaMjpJl-13" target="h5DCJfzuU3dhOEaMjpJl-30">
          <mxGeometry x="-0.1326" y="-32" width="160" relative="1" as="geometry">
            <mxPoint x="450" y="318.98" as="sourcePoint" />
            <mxPoint x="566.99" y="470" as="targetPoint" />
            <mxPoint as="offset" />
          </mxGeometry>
        </mxCell>
        <mxCell id="h5DCJfzuU3dhOEaMjpJl-34" value="curtir" style="ellipse;whiteSpace=wrap;html=1;" vertex="1" parent="1">
          <mxGeometry x="610.99" y="50" width="94" height="60" as="geometry" />
        </mxCell>
        <mxCell id="h5DCJfzuU3dhOEaMjpJl-35" value="comentar" style="ellipse;whiteSpace=wrap;html=1;" vertex="1" parent="1">
          <mxGeometry x="610.99" y="130" width="94" height="60" as="geometry" />
        </mxCell>
        <mxCell id="h5DCJfzuU3dhOEaMjpJl-36" value="&amp;lt;&amp;lt;include&amp;gt;&amp;gt;" style="html=1;verticalAlign=bottom;labelBackgroundColor=none;endArrow=open;endFill=0;dashed=1;rounded=0;entryX=0;entryY=0;entryDx=0;entryDy=0;" edge="1" parent="1" source="h5DCJfzuU3dhOEaMjpJl-12" target="h5DCJfzuU3dhOEaMjpJl-34">
          <mxGeometry x="0.1962" y="-26" width="160" relative="1" as="geometry">
            <mxPoint x="485" y="45" as="sourcePoint" />
            <mxPoint x="658" y="-51" as="targetPoint" />
            <mxPoint as="offset" />
          </mxGeometry>
        </mxCell>
        <mxCell id="h5DCJfzuU3dhOEaMjpJl-37" value="&amp;lt;&amp;lt;include&amp;gt;&amp;gt;" style="html=1;verticalAlign=bottom;labelBackgroundColor=none;endArrow=open;endFill=0;dashed=1;rounded=0;entryX=0;entryY=0.5;entryDx=0;entryDy=0;exitX=1;exitY=1;exitDx=0;exitDy=0;" edge="1" parent="1" source="h5DCJfzuU3dhOEaMjpJl-12" target="h5DCJfzuU3dhOEaMjpJl-35">
          <mxGeometry x="0.1962" y="-26" width="160" relative="1" as="geometry">
            <mxPoint x="521" y="122" as="sourcePoint" />
            <mxPoint x="635" y="69" as="targetPoint" />
            <mxPoint as="offset" />
          </mxGeometry>
        </mxCell>
      </root>
    </mxGraphModel>
  </diagram>
</mxfile>
